<mxfile host="Electron" modified="2024-12-02T19:58:25.903Z" agent="Mozilla/5.0 (Macintosh; Intel Mac OS X 10_15_7) AppleWebKit/537.36 (KHTML, like Gecko) draw.io/24.2.5 Chrome/120.0.6099.109 Electron/28.1.0 Safari/537.36" etag="pUPEDD1rrs5UYgwK_LNZ" version="24.2.5" type="device">
  <diagram name="Page-1" id="gQxZuIoQ2hYGxr2j1pI2">
    <mxGraphModel dx="2947" dy="2462" grid="1" gridSize="10" guides="1" tooltips="1" connect="1" arrows="1" fold="1" page="1" pageScale="1" pageWidth="827" pageHeight="1169" math="0" shadow="0">
      <root>
        <mxCell id="0" />
        <mxCell id="1" parent="0" />
        <mxCell id="WN3firtvMvSOp9WTK52u-2" value="Vehicle: Abstract Class" style="swimlane;whiteSpace=wrap;html=1;" vertex="1" parent="1">
          <mxGeometry x="304" y="70" width="280" height="290" as="geometry" />
        </mxCell>
        <mxCell id="WN3firtvMvSOp9WTK52u-6" value="&lt;div&gt;&lt;br&gt;&lt;/div&gt;&lt;ul&gt;&lt;li&gt;Engine&amp;nbsp;&lt;/li&gt;&lt;li&gt;Make&lt;/li&gt;&lt;li&gt;Expiration Date&amp;nbsp;&amp;nbsp;&lt;/li&gt;&lt;li&gt;Created Date&amp;nbsp;&lt;/li&gt;&lt;li&gt;Max Speed&lt;/li&gt;&lt;li&gt;Mass / Weight&amp;nbsp;&lt;/li&gt;&lt;li&gt;Capacity&lt;/li&gt;&lt;li&gt;Colour&lt;/li&gt;&lt;li&gt;seats&lt;/li&gt;&lt;/ul&gt;&lt;div&gt;&lt;div&gt;&lt;br&gt;&lt;/div&gt;&lt;/div&gt;" style="text;html=1;align=left;verticalAlign=middle;whiteSpace=wrap;rounded=0;" vertex="1" parent="WN3firtvMvSOp9WTK52u-2">
          <mxGeometry x="20" y="40" width="160" height="110" as="geometry" />
        </mxCell>
        <mxCell id="WN3firtvMvSOp9WTK52u-9" value="&lt;ul&gt;&lt;li&gt;Accelerate: Int&amp;nbsp;&lt;/li&gt;&lt;li&gt;Decelerate: Int&lt;/li&gt;&lt;li&gt;Travel: void&amp;nbsp;&lt;/li&gt;&lt;li&gt;Brake: void&amp;nbsp; &amp;nbsp;&lt;/li&gt;&lt;li&gt;Getters and setters for each attribute&amp;nbsp;&lt;/li&gt;&lt;/ul&gt;" style="text;html=1;align=left;verticalAlign=middle;resizable=0;points=[];autosize=1;strokeColor=none;fillColor=none;" vertex="1" parent="WN3firtvMvSOp9WTK52u-2">
          <mxGeometry x="20" y="160" width="260" height="110" as="geometry" />
        </mxCell>
        <mxCell id="WN3firtvMvSOp9WTK52u-11" value="&lt;span style=&quot;font-size: 23px;&quot;&gt;Vehicle Class relationships: Focus on Land Vehicles&amp;nbsp;&lt;/span&gt;" style="text;html=1;align=center;verticalAlign=middle;whiteSpace=wrap;rounded=0;" vertex="1" parent="1">
          <mxGeometry x="210" y="-60" width="370" height="30" as="geometry" />
        </mxCell>
        <mxCell id="WN3firtvMvSOp9WTK52u-3" value="" style="endArrow=none;html=1;rounded=0;" edge="1" parent="1">
          <mxGeometry width="50" height="50" relative="1" as="geometry">
            <mxPoint x="300" y="230" as="sourcePoint" />
            <mxPoint x="530" y="230" as="targetPoint" />
            <Array as="points">
              <mxPoint x="414" y="230" />
            </Array>
          </mxGeometry>
        </mxCell>
        <mxCell id="WN3firtvMvSOp9WTK52u-13" value="Automobile: Abstract class" style="swimlane;whiteSpace=wrap;html=1;startSize=23;" vertex="1" parent="1">
          <mxGeometry x="320" y="550" width="194" height="140" as="geometry" />
        </mxCell>
        <mxCell id="WN3firtvMvSOp9WTK52u-15" value="&lt;ul&gt;&lt;li&gt;Wheels&lt;/li&gt;&lt;li&gt;Horn&lt;/li&gt;&lt;li&gt;Is Public&amp;nbsp;&lt;/li&gt;&lt;/ul&gt;" style="text;html=1;align=left;verticalAlign=middle;whiteSpace=wrap;rounded=0;" vertex="1" parent="WN3firtvMvSOp9WTK52u-13">
          <mxGeometry x="26" y="35" width="124" height="30" as="geometry" />
        </mxCell>
        <mxCell id="WN3firtvMvSOp9WTK52u-16" value="&lt;ul&gt;&lt;li&gt;Drive: Int&lt;/li&gt;&lt;li&gt;Beep: String&amp;nbsp;&lt;/li&gt;&lt;/ul&gt;" style="text;html=1;align=center;verticalAlign=middle;whiteSpace=wrap;rounded=0;" vertex="1" parent="WN3firtvMvSOp9WTK52u-13">
          <mxGeometry y="90" width="164" height="40" as="geometry" />
        </mxCell>
        <mxCell id="WN3firtvMvSOp9WTK52u-14" value="" style="endArrow=none;html=1;rounded=0;" edge="1" parent="1">
          <mxGeometry width="50" height="50" relative="1" as="geometry">
            <mxPoint x="320" y="630" as="sourcePoint" />
            <mxPoint x="520" y="630" as="targetPoint" />
            <Array as="points">
              <mxPoint x="410" y="630" />
            </Array>
          </mxGeometry>
        </mxCell>
        <mxCell id="WN3firtvMvSOp9WTK52u-18" value="Car&amp;nbsp;" style="swimlane;whiteSpace=wrap;html=1;" vertex="1" parent="1">
          <mxGeometry x="350" y="1040" width="200" height="200" as="geometry" />
        </mxCell>
        <mxCell id="WN3firtvMvSOp9WTK52u-32" value="&lt;div&gt;Bicycle&lt;/div&gt;" style="swimlane;whiteSpace=wrap;html=1;" vertex="1" parent="1">
          <mxGeometry x="-120" y="1020" width="200" height="200" as="geometry" />
        </mxCell>
        <mxCell id="WN3firtvMvSOp9WTK52u-61" value="2 wheels&amp;nbsp;" style="text;html=1;align=center;verticalAlign=middle;resizable=0;points=[];autosize=1;strokeColor=none;fillColor=none;" vertex="1" parent="WN3firtvMvSOp9WTK52u-32">
          <mxGeometry x="30" y="50" width="70" height="30" as="geometry" />
        </mxCell>
        <mxCell id="WN3firtvMvSOp9WTK52u-33" value="Bus&lt;div&gt;&lt;br&gt;&lt;/div&gt;" style="swimlane;whiteSpace=wrap;html=1;" vertex="1" parent="1">
          <mxGeometry x="870" y="1020" width="200" height="190" as="geometry" />
        </mxCell>
        <mxCell id="WN3firtvMvSOp9WTK52u-38" value="Extends" style="endArrow=block;endSize=16;endFill=0;html=1;rounded=0;exitX=0.664;exitY=1.131;exitDx=0;exitDy=0;exitPerimeter=0;entryX=0.394;entryY=0;entryDx=0;entryDy=0;entryPerimeter=0;" edge="1" parent="1" source="WN3firtvMvSOp9WTK52u-16" target="WN3firtvMvSOp9WTK52u-18">
          <mxGeometry width="160" relative="1" as="geometry">
            <mxPoint x="210" y="610" as="sourcePoint" />
            <mxPoint x="210" y="910" as="targetPoint" />
          </mxGeometry>
        </mxCell>
        <mxCell id="WN3firtvMvSOp9WTK52u-41" value="" style="endArrow=none;html=1;rounded=0;entryX=1;entryY=0.5;entryDx=0;entryDy=0;" edge="1" parent="1" target="WN3firtvMvSOp9WTK52u-13">
          <mxGeometry width="50" height="50" relative="1" as="geometry">
            <mxPoint x="950" y="620" as="sourcePoint" />
            <mxPoint x="340" y="820" as="targetPoint" />
          </mxGeometry>
        </mxCell>
        <mxCell id="WN3firtvMvSOp9WTK52u-42" value="Extends" style="endArrow=block;endSize=16;endFill=0;html=1;rounded=0;entryX=0.379;entryY=-0.007;entryDx=0;entryDy=0;entryPerimeter=0;" edge="1" parent="1" target="WN3firtvMvSOp9WTK52u-33">
          <mxGeometry width="160" relative="1" as="geometry">
            <mxPoint x="946" y="620" as="sourcePoint" />
            <mxPoint x="400" y="850" as="targetPoint" />
          </mxGeometry>
        </mxCell>
        <mxCell id="WN3firtvMvSOp9WTK52u-46" value="Extends" style="endArrow=block;endSize=16;endFill=0;html=1;rounded=0;entryX=0.5;entryY=0;entryDx=0;entryDy=0;" edge="1" parent="1" target="WN3firtvMvSOp9WTK52u-32">
          <mxGeometry width="160" relative="1" as="geometry">
            <mxPoint x="-20" y="630" as="sourcePoint" />
            <mxPoint x="420" y="940" as="targetPoint" />
          </mxGeometry>
        </mxCell>
        <mxCell id="WN3firtvMvSOp9WTK52u-48" value="" style="endArrow=none;html=1;rounded=0;entryX=0;entryY=0;entryDx=0;entryDy=0;" edge="1" parent="1" target="WN3firtvMvSOp9WTK52u-16">
          <mxGeometry width="50" height="50" relative="1" as="geometry">
            <mxPoint x="-20" y="640" as="sourcePoint" />
            <mxPoint x="360" y="290" as="targetPoint" />
          </mxGeometry>
        </mxCell>
        <mxCell id="WN3firtvMvSOp9WTK52u-49" value="Extends" style="endArrow=block;endSize=16;endFill=0;html=1;rounded=0;entryX=0.427;entryY=-0.001;entryDx=0;entryDy=0;entryPerimeter=0;" edge="1" parent="1" target="WN3firtvMvSOp9WTK52u-13">
          <mxGeometry width="160" relative="1" as="geometry">
            <mxPoint x="400" y="350" as="sourcePoint" />
            <mxPoint x="640" y="560" as="targetPoint" />
          </mxGeometry>
        </mxCell>
        <mxCell id="WN3firtvMvSOp9WTK52u-51" value="Extends" style="endArrow=block;endSize=16;endFill=0;html=1;rounded=0;" edge="1" parent="1">
          <mxGeometry width="160" relative="1" as="geometry">
            <mxPoint x="1140" y="230" as="sourcePoint" />
            <mxPoint x="1140" y="560" as="targetPoint" />
          </mxGeometry>
        </mxCell>
        <mxCell id="WN3firtvMvSOp9WTK52u-52" value="Extends" style="endArrow=block;endSize=16;endFill=0;html=1;rounded=0;" edge="1" parent="1">
          <mxGeometry width="160" relative="1" as="geometry">
            <mxPoint x="-190" y="230" as="sourcePoint" />
            <mxPoint x="-190" y="610" as="targetPoint" />
          </mxGeometry>
        </mxCell>
        <mxCell id="WN3firtvMvSOp9WTK52u-53" value="&lt;b&gt;&lt;font style=&quot;font-size: 23px;&quot;&gt;SEA Vehicles.....&lt;/font&gt;&lt;/b&gt;" style="text;html=1;align=center;verticalAlign=middle;whiteSpace=wrap;rounded=0;" vertex="1" parent="1">
          <mxGeometry x="-250" y="650" width="110" height="90" as="geometry" />
        </mxCell>
        <mxCell id="WN3firtvMvSOp9WTK52u-54" value="&lt;b style=&quot;forced-color-adjust: none; color: rgb(0, 0, 0); font-family: Helvetica; font-size: 12px; font-style: normal; font-variant-ligatures: normal; font-variant-caps: normal; letter-spacing: normal; orphans: 2; text-align: center; text-indent: 0px; text-transform: none; widows: 2; word-spacing: 0px; -webkit-text-stroke-width: 0px; white-space: normal; background-color: rgb(251, 251, 251); text-decoration-thickness: initial; text-decoration-style: initial; text-decoration-color: initial;&quot;&gt;&lt;font style=&quot;forced-color-adjust: none; font-size: 23px;&quot;&gt;Flight Vehicles.....&lt;/font&gt;&lt;/b&gt;" style="text;whiteSpace=wrap;html=1;" vertex="1" parent="1">
          <mxGeometry x="1070" y="610" width="210" height="50" as="geometry" />
        </mxCell>
        <mxCell id="WN3firtvMvSOp9WTK52u-55" value="" style="endArrow=none;html=1;rounded=0;" edge="1" parent="1">
          <mxGeometry width="50" height="50" relative="1" as="geometry">
            <mxPoint x="-190" y="230" as="sourcePoint" />
            <mxPoint x="310" y="230" as="targetPoint" />
          </mxGeometry>
        </mxCell>
        <mxCell id="WN3firtvMvSOp9WTK52u-56" value="" style="endArrow=none;html=1;rounded=0;" edge="1" parent="1">
          <mxGeometry width="50" height="50" relative="1" as="geometry">
            <mxPoint x="530" y="230" as="sourcePoint" />
            <mxPoint x="1140" y="230" as="targetPoint" />
          </mxGeometry>
        </mxCell>
        <mxCell id="WN3firtvMvSOp9WTK52u-58" value="Extends" style="endArrow=block;endSize=16;endFill=0;html=1;rounded=0;" edge="1" parent="1">
          <mxGeometry x="0.0041" width="160" relative="1" as="geometry">
            <mxPoint x="440" y="1240" as="sourcePoint" />
            <mxPoint x="440" y="1740" as="targetPoint" />
            <Array as="points" />
            <mxPoint as="offset" />
          </mxGeometry>
        </mxCell>
        <mxCell id="WN3firtvMvSOp9WTK52u-59" value="Riding Bike" style="swimlane;whiteSpace=wrap;html=1;" vertex="1" parent="1">
          <mxGeometry x="-380" y="1400" width="200" height="200" as="geometry" />
        </mxCell>
        <mxCell id="WN3firtvMvSOp9WTK52u-75" value="Engine will be null&amp;nbsp;&lt;div&gt;&lt;br&gt;&lt;/div&gt;" style="text;html=1;align=center;verticalAlign=middle;whiteSpace=wrap;rounded=0;" vertex="1" parent="WN3firtvMvSOp9WTK52u-59">
          <mxGeometry x="45" y="60" width="110" height="30" as="geometry" />
        </mxCell>
        <mxCell id="WN3firtvMvSOp9WTK52u-60" value="Motorbike" style="swimlane;whiteSpace=wrap;html=1;" vertex="1" parent="1">
          <mxGeometry x="-10" y="1390" width="200" height="200" as="geometry" />
        </mxCell>
        <mxCell id="WN3firtvMvSOp9WTK52u-62" value="Extends" style="endArrow=block;endSize=16;endFill=0;html=1;rounded=0;entryX=0.75;entryY=0;entryDx=0;entryDy=0;" edge="1" parent="1" target="WN3firtvMvSOp9WTK52u-60">
          <mxGeometry width="160" relative="1" as="geometry">
            <mxPoint x="140" y="1170" as="sourcePoint" />
            <mxPoint x="450" y="1470" as="targetPoint" />
          </mxGeometry>
        </mxCell>
        <mxCell id="WN3firtvMvSOp9WTK52u-63" value="Door Interface&amp;nbsp;" style="html=1;whiteSpace=wrap;" vertex="1" parent="1">
          <mxGeometry x="580" y="950" width="260" height="170" as="geometry" />
        </mxCell>
        <mxCell id="WN3firtvMvSOp9WTK52u-64" value="" style="endArrow=none;html=1;rounded=0;entryX=1.016;entryY=0.644;entryDx=0;entryDy=0;entryPerimeter=0;exitX=-0.011;exitY=0.646;exitDx=0;exitDy=0;exitPerimeter=0;" edge="1" parent="1" source="WN3firtvMvSOp9WTK52u-63" target="WN3firtvMvSOp9WTK52u-63">
          <mxGeometry width="50" height="50" relative="1" as="geometry">
            <mxPoint x="380" y="870" as="sourcePoint" />
            <mxPoint x="430" y="820" as="targetPoint" />
          </mxGeometry>
        </mxCell>
        <mxCell id="WN3firtvMvSOp9WTK52u-65" value="Open Door(): void&lt;div&gt;&lt;br&gt;&lt;/div&gt;" style="text;html=1;align=center;verticalAlign=middle;whiteSpace=wrap;rounded=0;" vertex="1" parent="1">
          <mxGeometry x="650" y="1080" width="120" height="30" as="geometry" />
        </mxCell>
        <mxCell id="WN3firtvMvSOp9WTK52u-67" value="" style="endArrow=classic;html=1;rounded=0;entryX=0.75;entryY=0;entryDx=0;entryDy=0;exitX=0;exitY=0.25;exitDx=0;exitDy=0;" edge="1" parent="1" source="WN3firtvMvSOp9WTK52u-63" target="WN3firtvMvSOp9WTK52u-18">
          <mxGeometry width="50" height="50" relative="1" as="geometry">
            <mxPoint x="580" y="930" as="sourcePoint" />
            <mxPoint x="430" y="820" as="targetPoint" />
          </mxGeometry>
        </mxCell>
        <mxCell id="WN3firtvMvSOp9WTK52u-68" value="" style="endArrow=classic;html=1;rounded=0;entryX=0.25;entryY=0;entryDx=0;entryDy=0;exitX=0.999;exitY=0.186;exitDx=0;exitDy=0;exitPerimeter=0;" edge="1" parent="1" source="WN3firtvMvSOp9WTK52u-63" target="WN3firtvMvSOp9WTK52u-33">
          <mxGeometry width="50" height="50" relative="1" as="geometry">
            <mxPoint x="830" y="940" as="sourcePoint" />
            <mxPoint x="430" y="820" as="targetPoint" />
          </mxGeometry>
        </mxCell>
        <mxCell id="WN3firtvMvSOp9WTK52u-71" value="Extends" style="endArrow=block;endSize=16;endFill=0;html=1;rounded=0;entryX=0.421;entryY=-0.016;entryDx=0;entryDy=0;entryPerimeter=0;" edge="1" parent="1" target="WN3firtvMvSOp9WTK52u-59">
          <mxGeometry x="0.0041" width="160" relative="1" as="geometry">
            <mxPoint x="-296" y="1180" as="sourcePoint" />
            <mxPoint x="450" y="1750" as="targetPoint" />
            <Array as="points" />
            <mxPoint as="offset" />
          </mxGeometry>
        </mxCell>
        <mxCell id="WN3firtvMvSOp9WTK52u-72" value="" style="endArrow=none;html=1;rounded=0;entryX=1;entryY=0.75;entryDx=0;entryDy=0;" edge="1" parent="1" target="WN3firtvMvSOp9WTK52u-32">
          <mxGeometry width="50" height="50" relative="1" as="geometry">
            <mxPoint x="140" y="1170" as="sourcePoint" />
            <mxPoint x="430" y="1180" as="targetPoint" />
          </mxGeometry>
        </mxCell>
        <mxCell id="WN3firtvMvSOp9WTK52u-73" value="" style="endArrow=none;html=1;rounded=0;" edge="1" parent="1">
          <mxGeometry width="50" height="50" relative="1" as="geometry">
            <mxPoint x="-300" y="1180" as="sourcePoint" />
            <mxPoint x="-120" y="1180" as="targetPoint" />
          </mxGeometry>
        </mxCell>
        <mxCell id="WN3firtvMvSOp9WTK52u-78" value="Sports Car&lt;div&gt;&lt;br&gt;&lt;/div&gt;" style="swimlane;whiteSpace=wrap;html=1;" vertex="1" parent="1">
          <mxGeometry x="344" y="1740" width="200" height="200" as="geometry" />
        </mxCell>
        <mxCell id="WN3firtvMvSOp9WTK52u-79" value="SUV&lt;div&gt;&lt;br&gt;&lt;/div&gt;" style="swimlane;whiteSpace=wrap;html=1;" vertex="1" parent="1">
          <mxGeometry x="640" y="1740" width="200" height="200" as="geometry" />
        </mxCell>
        <mxCell id="WN3firtvMvSOp9WTK52u-80" value="Extends" style="endArrow=block;endSize=16;endFill=0;html=1;rounded=0;exitX=1;exitY=1;exitDx=0;exitDy=0;entryX=0.5;entryY=0;entryDx=0;entryDy=0;" edge="1" parent="1" source="WN3firtvMvSOp9WTK52u-18" target="WN3firtvMvSOp9WTK52u-79">
          <mxGeometry x="0.0041" width="160" relative="1" as="geometry">
            <mxPoint x="450" y="1250" as="sourcePoint" />
            <mxPoint x="450" y="1750" as="targetPoint" />
            <Array as="points" />
            <mxPoint as="offset" />
          </mxGeometry>
        </mxCell>
        <mxCell id="WN3firtvMvSOp9WTK52u-81" value="Normal cars&lt;div&gt;&lt;br&gt;&lt;/div&gt;" style="swimlane;whiteSpace=wrap;html=1;" vertex="1" parent="1">
          <mxGeometry x="70" y="1740" width="200" height="200" as="geometry" />
        </mxCell>
        <mxCell id="WN3firtvMvSOp9WTK52u-82" value="Extends" style="endArrow=block;endSize=16;endFill=0;html=1;rounded=0;entryX=0.5;entryY=0;entryDx=0;entryDy=0;" edge="1" parent="1" target="WN3firtvMvSOp9WTK52u-81">
          <mxGeometry x="0.0041" width="160" relative="1" as="geometry">
            <mxPoint x="380" y="1240" as="sourcePoint" />
            <mxPoint x="450" y="1750" as="targetPoint" />
            <Array as="points" />
            <mxPoint as="offset" />
          </mxGeometry>
        </mxCell>
        <mxCell id="WN3firtvMvSOp9WTK52u-83" value="Electric Vehicle&lt;div&gt;&lt;br&gt;&lt;/div&gt;" style="html=1;whiteSpace=wrap;" vertex="1" parent="1">
          <mxGeometry x="880" y="1360" width="260" height="240" as="geometry" />
        </mxCell>
        <mxCell id="WN3firtvMvSOp9WTK52u-84" value="" style="endArrow=none;html=1;rounded=0;entryX=1;entryY=0.75;entryDx=0;entryDy=0;exitX=0;exitY=0.75;exitDx=0;exitDy=0;elbow=vertical;" edge="1" parent="1" source="WN3firtvMvSOp9WTK52u-83" target="WN3firtvMvSOp9WTK52u-83">
          <mxGeometry width="50" height="50" relative="1" as="geometry">
            <mxPoint x="587" y="1070" as="sourcePoint" />
            <mxPoint x="854" y="1069" as="targetPoint" />
          </mxGeometry>
        </mxCell>
        <mxCell id="WN3firtvMvSOp9WTK52u-87" value="" style="endArrow=classic;html=1;rounded=0;entryX=0.587;entryY=0.007;entryDx=0;entryDy=0;exitX=0;exitY=0.5;exitDx=0;exitDy=0;entryPerimeter=0;" edge="1" parent="1" source="WN3firtvMvSOp9WTK52u-83" target="WN3firtvMvSOp9WTK52u-79">
          <mxGeometry width="50" height="50" relative="1" as="geometry">
            <mxPoint x="590" y="1003" as="sourcePoint" />
            <mxPoint x="510" y="1050" as="targetPoint" />
          </mxGeometry>
        </mxCell>
        <mxCell id="WN3firtvMvSOp9WTK52u-90" value="" style="endArrow=classic;html=1;rounded=0;entryX=0.75;entryY=0;entryDx=0;entryDy=0;" edge="1" parent="1" target="WN3firtvMvSOp9WTK52u-81">
          <mxGeometry width="50" height="50" relative="1" as="geometry">
            <mxPoint x="880" y="1410" as="sourcePoint" />
            <mxPoint x="504" y="1750" as="targetPoint" />
            <Array as="points">
              <mxPoint x="880" y="1400" />
            </Array>
          </mxGeometry>
        </mxCell>
        <mxCell id="WN3firtvMvSOp9WTK52u-91" value="" style="endArrow=classic;html=1;rounded=0;entryX=0.75;entryY=0;entryDx=0;entryDy=0;exitX=-0.018;exitY=0.348;exitDx=0;exitDy=0;exitPerimeter=0;" edge="1" parent="1" source="WN3firtvMvSOp9WTK52u-83" target="WN3firtvMvSOp9WTK52u-78">
          <mxGeometry width="50" height="50" relative="1" as="geometry">
            <mxPoint x="890" y="1490" as="sourcePoint" />
            <mxPoint x="767" y="1751" as="targetPoint" />
          </mxGeometry>
        </mxCell>
        <mxCell id="WN3firtvMvSOp9WTK52u-92" value="&lt;h1 style=&quot;margin-top: 0px;&quot;&gt;Ran out of time to finish off but this is the rough outline....&lt;/h1&gt;" style="text;html=1;whiteSpace=wrap;overflow=hidden;rounded=0;" vertex="1" parent="1">
          <mxGeometry x="-670" y="390" width="180" height="120" as="geometry" />
        </mxCell>
      </root>
    </mxGraphModel>
  </diagram>
</mxfile>
